HIERARCHY
ROOT Hips
{
	OFFSET 0.000000 0.000000 0.000000 
	CHANNELS 6 Xposition Yposition Zposition Yrotation Zrotation Xrotation 
	JOINT Lumbar
	{
		OFFSET 0.000000 0.000000 0.000000 
		CHANNELS 3 Zrotation Xrotation Yrotation
		JOINT Neck
		{
			OFFSET 0.000000 0.445665 0.000000 
			CHANNELS 3 Zrotation Xrotation Yrotation
			End Site
			{
				OFFSET 0.000000 0.227535 0.000000 
			}
		}
		JOINT RightShoulder
		{
			OFFSET 0.019635 0.377685 0.194865 
			CHANNELS 3 Zrotation Xrotation Yrotation
			JOINT RightElbow
			{
				OFFSET 0.000000 -0.243375 0.000000 
				CHANNELS 2 Zrotation Yrotation
				JOINT RightWrist
				{
					OFFSET 0.000000 -0.264825 0.000000 
					CHANNELS 2 Zrotation Xrotation
					End Site
					{
						OFFSET 0.006600 -0.176220 0.000990 
					}
				}
			}
		}
		JOINT LeftShoulder
		{
			OFFSET 0.019635 0.377685 -0.194865 
			CHANNELS 3 Zrotation Xrotation Yrotation
			JOINT LeftElbow
			{
				OFFSET 0.000000 -0.243375 0.000000 
				CHANNELS 2 Zrotation Yrotation
				JOINT LeftWrist
				{
					OFFSET 0.000000 -0.264825 0.000000 
					CHANNELS 2 Zrotation Xrotation
					End Site
					{
						OFFSET 0.006600 -0.176220 -0.000990 
					}
				}
			}
		}
	}
	JOINT RightHip
	{
		OFFSET 0.052140 -0.069960 0.075570 
		CHANNELS 3 Zrotation Xrotation Yrotation
		JOINT RightKnee
		{
			OFFSET 0.000000 -0.402270 0.000000 
			CHANNELS 1 Zrotation
			JOINT RightAnkle
			{
				OFFSET 0.000000 -0.404085 0.000000 
				CHANNELS 3 Zrotation Xrotation Yrotation
				End Site
				{
					OFFSET 0.204105 -0.089430 0.008415 
				}
			}
		}
	}
	JOINT LeftHip
	{
		OFFSET 0.052140 -0.069960 -0.075570 
		CHANNELS 3 Zrotation Xrotation Yrotation
		JOINT LeftKnee
		{
			OFFSET 0.000000 -0.402270 0.000000 
			CHANNELS 1 Zrotation
			JOINT LeftAnkle
			{
				OFFSET 0.000000 -0.404085 0.000000 
				CHANNELS 3 Zrotation Xrotation Yrotation
				End Site
				{
					OFFSET 0.204105 -0.089430 -0.008415 
				}
			}
		}
	}
}
MOTION
Frames: 24
Frame Time: 0.02
0.30958 -0.66691 0.31122 -31.62033 -76.51874 -89.9983 -1.98037 -7.50004 3.93771 -4.8111 -10.33627 -2.11994 128.41462 -20.73405 44.45715 72.32369 123.9935 -44.68587 -8.48941 129.24045 28.77104 -42.02991 79.4457 -121.44306 -43.63867 8.10191 40.55519 -17.72484 7.85753 -59.53197 -5.92626 -3.3738 -3.835 94.93335 -13.69295 25.42148 -147.07826 22.28765 -33.11581 -13.00512
0.30956 -0.66693 0.31122 -31.60445 -76.51628 -89.9985 -1.97489 -7.49008 3.93259 -4.80644 -10.30454 -2.11994 128.92048 -21.12084 45.52912 72.26865 125.91409 -47.52318 -8.79663 130.31463 29.58312 -44.03494 79.38911 -123.48267 -47.80686 8.38623 40.54623 -17.72045 7.84327 -59.53231 -5.92604 -3.3748 -3.83542 94.8988 -13.69315 25.40412 -147.07827 22.28776 -33.11612 -13.0054
0.30955 -0.66691 0.31123 -31.58976 -76.50675 -89.99883 -1.96901 -7.48288 3.92812 -4.79368 -10.26554 -2.11994 129.78488 -21.77397 47.30583 72.17707 129.04487 -52.24296 -9.28886 131.67977 30.61311 -46.56569 79.31847 -126.03933 -53.07807 8.7426 40.54211 -17.71437 7.8409 -59.53079 -5.92583 -3.37574 -3.83582 94.88489 -13.69325 25.39409 -147.07827 22.28781 -33.11626 -13.00553
0.30953 -0.66691 0.31123 -31.57464 -76.50118 -89.99909 -1.96362 -7.47427 3.92355 -4.7855 -10.23135 -2.11994 130.4577 -22.28581 48.7023 72.10645 131.51801 -55.94648 -9.67985 132.83716 31.48687 -48.71965 79.25692 -128.22229 -57.55886 9.04659 40.53527 -17.70921 7.83261 -59.53007 -5.92555 -3.37662 -3.83618 94.85974 -13.69339 25.37972 -147.07827 22.28789 -33.11648 -13.00572
0.3095 -0.6669 0.31123 -31.55899 -76.49267 -89.99938 -1.95673 -7.46616 3.91816 -4.77333 -10.19106 -2.11994 131.24525 -22.87829 50.33937 72.01779 134.42429 -60.29498 -10.14005 134.31297 32.6023 -51.45519 79.1848 -130.99105 -63.25899 9.43276 40.53036 -17.70356 7.82651 -59.52917 -5.92552 -3.37783 -3.83672 94.84091 -13.69353 25.36975 -147.07827 22.28797 -33.11672 -13.00593
0.30949 -0.66691 0.31124 -31.54475 -76.48849 -89.99963 -1.95295 -7.45777 3.9146 -4.76765 -10.16155 -2.11994 131.88172 -23.36801 51.64853 71.95769 136.72626 -63.76312 -10.50167 135.20475 33.27357 -53.12247 79.13078 -132.68071 -66.72001 9.6677 40.5227 -17.69846 7.81854 -59.52833 -5.92499 -3.37838 -3.8369 94.81462 -13.69364 25.35239 -147.07827 22.28803 -33.11688 -13.00607
0.30952 -0.66696 0.31122 -31.53424 -76.49833 -89.99972 -1.95795 -7.4475 3.91623 -4.78158 -10.16481 -2.11994 132.00788 -23.50705 51.86484 71.98817 137.03207 -64.29661 -10.54031 134.2854 32.56862 -51.48033 79.13326 -131.02968 -63.24037 9.43454 40.50603 -17.69539 7.80392 -59.52837 -5.9229 -3.37689 -3.83598 94.76012 -13.69367 25.31186 -147.07827 22.28804 -33.11692 -13.00611
0.30955 -0.66702 0.31121 -31.52511 -76.51268 -89.99976 -1.96611 -7.43694 3.91963 -4.80242 -10.17893 -2.11994 131.97077 -23.53394 51.72983 72.04815 136.694 -63.88779 -10.47438 132.78763 31.42375 -48.78015 79.1538 -128.31036 -57.5435 9.05177 40.48652 -17.69291 7.78673 -59.52854 -5.92034 -3.37479 -3.83473 94.69806 -13.69365 25.2638 -147.07827 22.28804 -33.1169 -13.00609
0.30958 -0.66707 0.31119 -31.51528 -76.52473 -89.99981 -1.97281 -7.42679 3.922 -4.82031 -10.18722 -2.11994 132.01364 -23.61477 51.7689 72.09281 136.67714 -63.94772 -10.46083 131.64011 30.54496 -46.71941 79.16389 -126.23744 -53.1893 8.75965 40.4685 -17.69002 7.76988 -59.52851 -5.9181 -3.37313 -3.83372 94.64138 -13.69366 25.21981 -147.07827 22.28804 -33.11691 -13.00609
0.30961 -0.66713 0.31117 -31.50575 -76.53763 -89.9999 -1.97961 -7.41557 3.92532 -4.83707 -10.19897 -2.11994 132.04732 -23.69458 51.77728 72.14421 136.59166 -63.91705 -10.4348 130.14555 29.40339 -44.02862 79.18282 -123.52501 -47.50423 8.37744 40.44974 -17.68754 7.75712 -59.52898 -5.9154 -3.37079 -3.83235 94.57727 -13.69366 25.17336 -147.07827 22.28804 -33.11691 -13.0061
0.30965 -0.66718 0.31116 -31.49595 -76.5499 -89.9999 -1.98694 -7.40646 3.92711 -4.85797 -10.20625 -2.11994 132.05321 -23.74351 51.7497 72.18911 136.46768 -63.80768 -10.40549 129.21817 28.69081 -42.3658 79.18799 -121.85726 -43.99447 8.14262 40.43184 -17.68452 7.73485 -59.5285 -5.91354 -3.36969 -3.83164 94.52644 -13.69365 25.13013 -147.07827 22.28804 -33.1169 -13.00609
0.3097 -0.66718 0.31117 -31.48471 -76.55957 -89.99962 -1.99514 -7.40343 3.92395 -4.88848 -10.1981 -2.11994 132.05184 -23.75925 51.77069 72.20859 136.50348 -63.87398 -10.40976 130.12495 29.36668 -44.02886 79.14923 -123.56988 -47.51998 8.38439 40.41659 -17.67874 7.68877 -59.5251 -5.91423 -3.37231 -3.83292 94.51552 -13.69366 25.09766 -147.07827 22.28804 -33.11691 -13.0061
0.30976 -0.66717 0.31119 -31.47319 -76.56843 -89.99925 -2.00374 -7.40246 3.91925 -4.92302 -10.18515 -2.11994 132.02165 -23.7425 51.75413 72.22072 136.4992 -63.85804 -10.41065 131.60014 30.47251 -46.72259 79.09632 -126.32945 -53.22546 8.77385 40.40237 -17.67261 7.63285 -59.52082 -5.91576 -3.37616 -3.83486 94.51795 -13.69366 25.06868 -147.07827 22.28804 -33.11691 -13.0061
0.30982 -0.66717 0.3112 -31.46203 -76.57755 -89.99893 -2.01202 -7.40046 3.91543 -4.95579 -10.17476 -2.11994 131.98245 -23.72233 51.70864 72.23658 136.43251 -63.75854 -10.40041 132.72717 31.31459 -48.78563 79.051 -128.44683 -57.59489 9.07273 40.38796 -17.66746 7.58015 -59.51716 -5.91683 -3.37933 -3.83646 94.51316 -13.69364 25.038 -147.07827 22.28803 -33.11688 -13.00607
0.30988 -0.66716 0.31121 -31.44999 -76.58731 -89.99856 -2.02095 -7.39898 3.91089 -4.98841 -10.16331 -2.11994 132.02779 -23.77254 51.83902 72.25189 136.67322 -64.12088 -10.43832 134.20219 32.42128 -51.47685 79.00154 -131.20863 -63.3018 9.46248 40.37229 -17.65897 7.53254 -59.51259 -5.9182 -3.38297 -3.83825 94.51263 -13.6937 25.00742 -147.07827 22.28806 -33.11698 -13.00616
0.30993 -0.66715 0.31122 -31.43963 -76.59546 -89.99828 -2.02863 -7.39676 3.9075 -5.02236 -10.15256 -2.11994 131.89648 -23.6732 51.60684 72.2661 136.28657 -63.53518 -10.3787 135.1091 33.09561 -53.14375 78.95694 -132.91721 -66.82442 9.70377 40.35951 -17.6572 7.47218 -59.50969 -5.91916 -3.38593 -3.83979 94.50693 -13.69359 24.97772 -147.07827 22.28801 -33.11681 -13.00601
0.30996 -0.66717 0.31122 -31.43471 -76.59949 -89.99822 -2.03237 -7.39328 3.90735 -5.05763 -10.14676 -2.11994 131.24843 -23.13999 50.31278 72.27963 134.05599 -60.16852 -10.03165 134.18455 32.37508 -51.50697 78.9304 -131.22997 -63.30285 9.46592 40.35456 -17.67514 7.3778 -59.5118 -5.91875 -3.3867 -3.84049 94.48013 -13.69298 24.94834 -147.07827 22.28768 -33.11589 -13.0052
0.30998 -0.66718 0.31121 -31.43137 -76.60185 -89.99825 -2.0349 -7.38879 3.90847 -5.09429 -10.1414 -2.11994 130.43102 -22.46311 48.66969 72.29185 131.22083 -55.8889 -9.59055 132.69191 31.22246 -48.84563 78.90875 -128.48987 -57.59757 9.07971 40.35251 -17.69957 7.27134 -59.51559 -5.91792 -3.38675 -3.84092 94.44851 -13.69221 24.9201 -147.07826 22.28726 -33.11472 -13.00418
0.31001 -0.66719 0.3112 -31.42675 -76.60488 -89.99825 -2.03826 -7.38389 3.90922 -5.13118 -10.13459 -2.11994 129.71567 -21.8717 47.23421 72.30438 128.74567 -52.15256 -9.20553 131.54676 30.33542 -46.81127 78.88423 -126.39555 -53.23111 8.78485 40.34904 -17.72042 7.17099 -59.51848 -5.91729 -3.38711 -3.84145 94.42129 -13.69153 24.89207 -147.07826 22.2869 -33.11369 -13.00328
0.31004 -0.66721 0.3112 -31.42433 -76.60834 -89.99823 -2.0405 -7.38257 3.90904 -5.16466 -10.13296 -2.11994 128.89364 -21.19472 45.59121 72.31865 125.91038 -47.87268 -8.76427 130.05509 29.17987 -44.15161 78.86268 -123.65245 -47.52103 8.39724 40.34593 -17.74422 7.06697 -59.52187 -5.91661 -3.38751 -3.84206 94.38463 -13.69075 24.86067 -147.07826 22.28648 -33.11251 -13.00225
0.31006 -0.66722 0.31118 -31.41791 -76.61039 -89.99827 -2.04471 -7.37371 3.91114 -5.20539 -10.12062 -2.11994 128.25351 -20.66127 44.29702 72.3281 123.68026 -44.50689 -8.41753 129.12899 28.46417 -42.51183 78.83539 -121.96993 -44.0073 8.16169 40.3429 -17.76304 6.96875 -59.5247 -5.91601 -3.38774 -3.84249 94.36702 -13.69015 24.83705 -147.07826 22.28615 -33.1116 -13.00144
0.31003 -0.66721 0.31113 -31.39849 -76.6101 -89.99851 -2.05522 -7.34277 3.91906 -5.26677 -10.07954 -2.11994 128.16307 -20.56932 44.06443 72.33262 123.29134 -43.91815 -8.35864 130.02527 29.16635 -44.16482 78.79747 -123.71159 -47.57585 8.41704 40.33801 -17.76993 6.88162 -59.52489 -5.91506 -3.38682 -3.84201 94.39734 -13.69003 24.82989 -147.07826 22.28609 -33.11142 -13.00128
0.30999 -0.66721 0.31107 -31.37534 -76.60827 -89.99882 -2.06764 -7.30459 3.92925 -5.33508 -10.02763 -2.11994 128.26151 -20.62578 44.19462 72.33065 123.5311 -44.28025 -8.39797 131.48732 30.30739 -46.83691 78.75153 -126.51283 -53.33857 8.82409 40.3334 -17.77107 6.80215 -59.52459 -5.91434 -3.38589 -3.84144 94.44819 -13.6901 24.83127 -147.07826 22.28613 -33.11151 -13.00136
0.30995 -0.6672 0.31101 -31.35485 -76.60635 -89.99907 -2.07884 -7.27064 3.93855 -5.39972 -9.97994 -2.11994 128.2686 -20.60703 44.14803 72.32664 123.46534 -44.18261 -8.38919 132.60462 31.17935 -48.88336 78.70635 -128.66077 -57.75728 9.13718 40.3295 -17.77245 6.72455 -59.52494 -5.91395 -3.3855 -3.84123 94.4932 -13.6901 24.832 -147.07826 22.28613 -33.11151 -13.00135
